<svg width="9" height="10" viewBox="0 0 9 10" fill="none" xmlns="http://www.w3.org/2000/svg">
<path fill-rule="evenodd" clip-rule="evenodd" d="M4.50036 7.50001C4.57495 7.50001 4.64648 7.47038 4.69923 7.41764C4.75197 7.36489 4.78161 7.29336 4.78161 7.21876V3.9602L5.98873 5.16789C6.01488 5.19404 6.04592 5.21478 6.08009 5.22893C6.11426 5.24309 6.15087 5.25037 6.18786 5.25037C6.22484 5.25037 6.26145 5.24309 6.29562 5.22893C6.32979 5.21478 6.36083 5.19404 6.38698 5.16789C6.41313 5.14174 6.43387 5.1107 6.44802 5.07653C6.46218 5.04236 6.46946 5.00575 6.46946 4.96876C6.46946 4.93178 6.46218 4.89516 6.44802 4.861C6.43387 4.82683 6.41313 4.79579 6.38698 4.76964L4.69948 3.08214C4.67335 3.05595 4.64232 3.03517 4.60815 3.02099C4.57398 3.00681 4.53735 2.99951 4.50036 2.99951C4.46336 2.99951 4.42673 3.00681 4.39256 3.02099C4.35839 3.03517 4.32736 3.05595 4.30123 3.08214L2.61373 4.76964C2.56092 4.82245 2.53125 4.89408 2.53125 4.96876C2.53125 5.04345 2.56092 5.11508 2.61373 5.16789C2.66654 5.2207 2.73817 5.25037 2.81286 5.25037C2.88754 5.25037 2.95917 5.2207 3.01198 5.16789L4.21911 3.9602V7.21876C4.21911 7.29336 4.24874 7.36489 4.30148 7.41764C4.35423 7.47038 4.42576 7.50001 4.50036 7.50001Z" fill="#62912C"/>
</svg>
