<svg width="954" height="1221" viewBox="0 0 954 1221" fill="none" xmlns="http://www.w3.org/2000/svg">
<g opacity="0.11">
<path d="M648.716 15.2589C957.962 -70.0811 989.439 246.05 896.063 474.192C848.041 607.303 997.386 694.719 937.785 859.617C878.183 1024.51 690.437 826.836 594.081 1079.15C497.725 1331.46 66.6061 1208.29 61.6394 987.76C56.6726 767.234 -15.8431 827.829 -181.735 607.303C-347.626 386.776 -117.166 15.2594 126.208 107.642C369.582 200.024 313.953 107.641 648.716 15.2589Z" stroke="#94AFA9" stroke-width="2"/>
<path d="M408.051 489.884C437.505 480.038 485.021 526.158 464.743 563.244C446.173 597.203 458.697 631.785 450.418 654.633C428.624 714.781 417.088 692.656 391.203 719.544C359.705 752.263 277.226 767.876 277.226 692.656C277.226 630.792 247.179 649.302 233.866 602.978C220.552 556.653 243.215 504.118 302.879 504.118C325.285 504.118 358.995 506.284 408.051 489.884Z" stroke="#94AFA9" stroke-width="2"/>
<path d="M628.34 58.3951C912.15 -20.0819 945.086 271.503 858.355 482.276C813.01 606.373 949.917 688.986 894.981 840.97C838.816 996.345 667.09 814.626 577.14 1046.45C486.68 1278.8 87.2559 1168.24 82.7407 960.921C78.2254 754.818 9.57058 811.588 -142.45 606.898C-294.471 402.208 -82.9014 59.6894 143.771 143.674C367.057 227.658 319.55 143.87 628.34 58.3951Z" stroke="#94AFA9" stroke-width="2"/>
<path d="M607.964 101.544C866.338 29.9301 900.732 296.969 820.646 490.373C777.979 605.456 902.448 683.266 852.177 822.337C799.45 968.189 643.742 802.43 560.199 1013.76C475.635 1226.14 107.905 1128.2 103.842 934.095C99.7779 742.416 34.9839 795.359 -103.166 606.506C-241.316 417.653 -48.6375 104.132 161.335 179.718C364.532 255.304 325.147 180.111 607.964 101.544Z" stroke="#94AFA9" stroke-width="2"/>
<path d="M587.585 144.681C820.523 79.9297 856.375 322.422 782.935 498.458C742.945 604.527 854.975 677.534 809.371 803.69C760.08 940.02 620.392 790.22 543.255 981.054C464.588 1173.48 128.552 1088.15 124.94 907.256C121.328 730.001 60.3948 779.118 -63.8845 606.102C-188.164 433.085 -14.3757 148.563 178.895 215.75C362.005 282.937 330.742 216.34 587.585 144.681Z" stroke="#94AFA9" stroke-width="2"/>
<path d="M567.205 187.83C774.708 129.942 812.018 347.888 745.223 506.554C707.911 603.61 807.503 671.814 766.564 785.057C720.71 911.864 597.041 778.023 526.311 948.364C453.539 1120.83 149.199 1048.12 146.038 880.43C142.877 717.598 85.8047 762.89 -24.6038 605.71C-135.012 448.53 19.8849 193.006 196.455 251.795C359.477 310.584 336.335 252.582 567.205 187.83Z" stroke="#94AFA9" stroke-width="2"/>
<path d="M545.793 230.968C727.86 179.943 766.628 373.342 706.478 514.64C671.844 602.682 758.997 666.082 722.724 766.412C680.308 883.696 572.657 765.815 508.334 915.663C441.459 1068.16 168.812 1008.07 166.103 853.592C163.394 705.185 110.182 746.65 13.6446 605.307C-82.8933 463.963 53.1133 237.438 212.983 287.828C355.917 338.219 340.896 288.812 545.793 230.968Z" stroke="#94AFA9" stroke-width="2"/>
<path d="M523.16 274.118C679.792 229.956 720.018 398.809 666.513 522.738C634.556 601.767 709.271 660.364 677.664 747.78C638.684 855.542 547.053 753.62 489.136 882.974C428.157 1015.51 187.205 968.035 184.948 826.767C182.69 692.783 133.339 730.423 50.672 604.916C-31.9951 479.409 85.1208 281.882 228.29 323.874C351.135 365.866 344.237 325.055 523.16 274.118Z" stroke="#94AFA9" stroke-width="2"/>
<path d="M500.457 317.257C631.653 279.959 673.338 424.265 626.478 530.825C597.199 600.84 659.476 654.634 632.534 729.136C596.991 827.375 521.379 741.413 469.869 850.274C414.786 962.845 205.529 927.989 203.723 799.931C201.917 680.371 156.426 714.185 87.63 604.514C18.8335 494.844 117.059 326.315 243.527 359.909C346.284 393.502 347.507 361.287 500.457 317.257Z" stroke="#94AFA9" stroke-width="2"/>
<path d="M477.659 360.399C583.42 329.963 626.562 449.723 586.347 538.914C559.745 599.915 609.584 648.907 587.308 710.495C555.203 799.211 495.609 729.208 450.506 817.576C401.319 910.184 223.757 887.945 222.402 773.097C221.047 667.961 179.418 697.949 124.492 604.115C69.5666 510.281 148.901 370.75 258.668 395.946C341.338 421.141 350.683 397.521 477.659 360.399Z" stroke="#94AFA9" stroke-width="2"/>
<path d="M454.703 403.555C535.028 379.982 579.628 475.196 546.059 547.019C522.135 599.006 559.535 643.194 541.925 691.869C513.257 771.062 469.682 717.019 430.985 784.893C387.694 857.538 241.826 847.916 240.923 746.278C240.02 655.566 202.252 681.728 161.197 603.73C120.142 525.733 180.586 415.2 273.652 431.997C336.234 448.794 353.7 433.77 454.703 403.555Z" stroke="#94AFA9" stroke-width="2"/>
<path d="M431.553 446.705C486.443 429.996 532.501 500.663 505.578 555.117C484.33 598.09 509.293 637.475 496.348 673.236C471.117 742.907 443.562 704.823 411.271 752.204C373.877 804.886 259.703 807.882 259.252 719.453C258.8 643.164 224.892 665.501 197.708 603.34C170.524 541.179 212.077 459.645 288.442 468.043C330.936 476.442 356.524 470.013 431.553 446.705Z" stroke="#94AFA9" stroke-width="2"/>
</g>
</svg>
