<svg width="30" height="30" viewBox="0 0 30 30" fill="none" xmlns="http://www.w3.org/2000/svg">
<g filter="url(#filter0_d_183_16174)">
<g clip-path="url(#clip0_183_16174)">
<rect x="4.22949" y="2.09492" width="22.41" height="22.41" rx="11.205" fill="white"/>
<path d="M16.1421 18.6949H15.5562L15.7027 16.5414C15.6944 16.428 15.6351 16.3982 15.4097 16.4068L13.0662 16.676C13.0662 16.676 13.5056 16.1376 13.5056 15.8684C13.5056 15.5992 10.8691 13.8495 10.8691 13.8495C10.8691 13.8495 11.455 13.7149 11.6015 13.5803C11.748 13.4457 11.0156 11.9652 11.0156 11.9652C11.0156 11.9652 12.5041 12.5036 12.6268 12.369C12.7495 12.2344 12.9197 11.696 12.9197 11.696C12.9197 11.696 14.0915 12.9073 14.3844 12.9073C14.6774 12.9073 13.7986 9.94626 13.7986 9.94626C13.7986 9.94626 14.5309 10.4846 14.8238 10.4846C15.1168 10.4846 15.8491 8.73491 15.8491 8.73491C15.8491 8.73491 16.5815 10.4846 16.728 10.4846C16.8744 10.4846 17.8997 9.94626 17.8997 9.94626C17.8997 9.94626 17.1674 12.7727 17.3138 12.9073C17.4603 13.0419 18.7786 11.696 18.7786 11.696C18.7786 11.696 18.925 12.2344 19.0715 12.369C19.218 12.5036 20.6827 11.9652 20.6827 11.9652C20.6827 11.9652 19.9503 13.4457 20.0968 13.5803C20.2433 13.7149 20.8291 13.8495 20.8291 13.8495C20.8291 13.8495 18.1927 15.5992 18.1927 15.8684C18.1927 16.1376 18.4856 16.676 18.4856 16.676L16.2886 16.4068C16.112 16.3603 16.0507 16.3956 15.9956 16.5414L16.1421 18.6949Z" fill="#F93939"/>
<rect x="23.3193" y="3.75491" width="6.64" height="19.92" fill="#F93939"/>
<rect x="1.73926" y="3.75491" width="5.81" height="19.92" fill="#F93939"/>
</g>
</g>
<defs>
<filter id="filter0_d_183_16174" x="0.909492" y="0.434917" width="29.0502" height="29.05" filterUnits="userSpaceOnUse" color-interpolation-filters="sRGB">
<feFlood flood-opacity="0" result="BackgroundImageFix"/>
<feColorMatrix in="SourceAlpha" type="matrix" values="0 0 0 0 0 0 0 0 0 0 0 0 0 0 0 0 0 0 127 0" result="hardAlpha"/>
<feOffset dy="1.66"/>
<feGaussianBlur stdDeviation="1.66"/>
<feColorMatrix type="matrix" values="0 0 0 0 0 0 0 0 0 0 0 0 0 0 0 0 0 0 0.075 0"/>
<feBlend mode="normal" in2="BackgroundImageFix" result="effect1_dropShadow_183_16174"/>
<feBlend mode="normal" in="SourceGraphic" in2="effect1_dropShadow_183_16174" result="shape"/>
</filter>
<clipPath id="clip0_183_16174">
<rect x="4.22949" y="2.09492" width="22.41" height="22.41" rx="11.205" fill="white"/>
</clipPath>
</defs>
</svg>
