<svg width="10" height="11" viewBox="0 0 10 11" fill="none" xmlns="http://www.w3.org/2000/svg">
<path d="M4.92971 7.66172L1.93221 4.23547C1.57846 3.83234 1.86596 3.19922 2.40284 3.19922H8.39784C8.51799 3.19912 8.63563 3.23365 8.73666 3.29868C8.83769 3.36372 8.91783 3.45649 8.96749 3.5659C9.01715 3.67531 9.03422 3.79672 9.01666 3.91558C8.9991 4.03444 8.94764 4.14572 8.86846 4.23609L5.87096 7.66109C5.8123 7.72822 5.73995 7.78203 5.65878 7.81889C5.57761 7.85576 5.48949 7.87483 5.40034 7.87483C5.31119 7.87483 5.22307 7.85576 5.14189 7.81889C5.06072 7.78203 4.98837 7.72822 4.92971 7.66109V7.66172Z" fill="white"/>
</svg>
