<svg width="30" height="29" viewBox="0 0 30 29" fill="none" xmlns="http://www.w3.org/2000/svg">
<g clip-path="url(#clip0_48_531)">
<path d="M29.5 14.5887C29.5 6.5303 23.0076 -0.00195312 15 -0.00195312C6.98871 -0.000140625 0.496338 6.5303 0.496338 14.5905C0.496338 21.8713 5.79971 27.9069 12.7307 29.0017V18.8064H9.05134V14.5905H12.7343V11.3733C12.7343 7.71748 14.9003 5.69836 18.2117 5.69836C19.7995 5.69836 21.4579 5.98292 21.4579 5.98292V9.57167H19.6291C17.8293 9.57167 17.2674 10.6972 17.2674 11.8518V14.5887H21.2875L20.6459 18.8045H17.2656V28.9999C24.1966 27.9051 29.5 21.8695 29.5 14.5887Z" fill="#9A55FF"/>
</g>
<defs>
<clipPath id="clip0_48_531">
<rect width="29" height="29" fill="white" transform="translate(0.5)"/>
</clipPath>
</defs>
</svg>
