<svg width="30" height="29" viewBox="0 0 30 29" fill="none" xmlns="http://www.w3.org/2000/svg">
<rect x="0.5" width="29" height="29" rx="14.5" fill="#9A55FF"/>
<g clip-path="url(#clip0_48_532)">
<path d="M15 6C12.6933 6 12.4033 6.01063 11.4969 6.051C10.5906 6.0935 9.97331 6.23587 9.4325 6.44625C8.86522 6.65962 8.3514 6.99432 7.92694 7.42694C7.49458 7.85161 7.15993 8.36538 6.94625 8.9325C6.73587 9.47225 6.59244 10.0906 6.551 10.9937C6.51063 11.9022 6.5 12.1912 6.5 14.5011C6.5 16.8088 6.51063 17.0978 6.551 18.0041C6.5935 18.9094 6.73587 19.5267 6.94625 20.0675C7.16406 20.6264 7.45413 21.1002 7.92694 21.5731C8.39869 22.0459 8.87256 22.337 9.43144 22.5537C9.97331 22.7641 10.5896 22.9076 11.4948 22.949C12.4022 22.9894 12.6912 23 15 23C17.3088 23 17.5968 22.9894 18.5041 22.949C19.4083 22.9065 20.0278 22.7641 20.5686 22.5537C21.1355 22.3403 21.6489 22.0056 22.0731 21.5731C22.5459 21.1002 22.8359 20.6264 23.0537 20.0675C23.2631 19.5267 23.4065 18.9094 23.449 18.0041C23.4894 17.0978 23.5 16.8088 23.5 14.5C23.5 12.1912 23.4894 11.9022 23.449 10.9948C23.4065 10.0906 23.2631 9.47225 23.0537 8.9325C22.8401 8.36536 22.5054 7.85159 22.0731 7.42694C21.6487 6.99416 21.1349 6.65944 20.5675 6.44625C20.0256 6.23587 19.4073 6.09244 18.5031 6.051C17.5957 6.01063 17.3077 6 14.9979 6H15.0011H15ZM14.2382 7.53212H15.0011C17.2706 7.53212 17.5394 7.53956 18.4351 7.581C19.2638 7.61819 19.7143 7.75738 20.0139 7.87319C20.4102 8.02725 20.6939 8.21213 20.9914 8.50962C21.2889 8.80713 21.4728 9.08975 21.6268 9.48713C21.7437 9.78569 21.8818 10.2362 21.919 11.0649C21.9604 11.9606 21.9689 12.2294 21.9689 14.4979C21.9689 16.7663 21.9604 17.0362 21.919 17.9319C21.8818 18.7606 21.7426 19.2101 21.6268 19.5097C21.4905 19.8788 21.273 20.2125 20.9904 20.4861C20.6929 20.7836 20.4103 20.9674 20.0129 21.1215C19.7154 21.2384 19.2649 21.3765 18.4351 21.4148C17.5394 21.4551 17.2706 21.4647 15.0011 21.4647C12.7316 21.4647 12.4617 21.4551 11.566 21.4148C10.7373 21.3765 10.2878 21.2384 9.98819 21.1215C9.61897 20.9854 9.28495 20.7683 9.01069 20.4861C8.7278 20.212 8.50996 19.878 8.37319 19.5086C8.25738 19.2101 8.11819 18.7596 8.081 17.9308C8.04063 17.0351 8.03212 16.7663 8.03212 14.4957C8.03212 12.2262 8.04063 11.9585 8.081 11.0628C8.11925 10.2341 8.25738 9.78356 8.37425 9.48394C8.52831 9.08763 8.71319 8.80394 9.01069 8.50644C9.30819 8.20894 9.59081 8.02513 9.98819 7.87106C10.2878 7.75419 10.7373 7.61606 11.566 7.57781C12.3501 7.54169 12.654 7.53106 14.2382 7.53V7.53212ZM19.5379 8.94313C19.404 8.94313 19.2714 8.96951 19.1476 9.02077C19.0238 9.07203 18.9114 9.14716 18.8167 9.24188C18.722 9.33659 18.6468 9.44904 18.5956 9.57279C18.5443 9.69654 18.5179 9.82918 18.5179 9.96312C18.5179 10.0971 18.5443 10.2297 18.5956 10.3535C18.6468 10.4772 18.722 10.5897 18.8167 10.6844C18.9114 10.7791 19.0238 10.8542 19.1476 10.9055C19.2714 10.9567 19.404 10.9831 19.5379 10.9831C19.8085 10.9831 20.0679 10.8757 20.2592 10.6844C20.4505 10.4931 20.5579 10.2336 20.5579 9.96312C20.5579 9.6926 20.4505 9.43316 20.2592 9.24188C20.0679 9.05059 19.8085 8.94313 19.5379 8.94313ZM15.0011 10.1353C14.4221 10.1262 13.8471 10.2325 13.3095 10.4478C12.772 10.6631 12.2827 10.9832 11.87 11.3895C11.4574 11.7957 11.1297 12.28 10.906 12.8141C10.6823 13.3482 10.5671 13.9215 10.5671 14.5005C10.5671 15.0796 10.6823 15.6529 10.906 16.187C11.1297 16.7211 11.4574 17.2054 11.87 17.6116C12.2827 18.0179 12.772 18.338 13.3095 18.5533C13.8471 18.7686 14.4221 18.8748 15.0011 18.8658C16.147 18.8479 17.24 18.3802 18.044 17.5635C18.8481 16.7467 19.2988 15.6466 19.2988 14.5005C19.2988 13.3544 18.8481 12.2543 18.044 11.4376C17.24 10.6209 16.147 10.1531 15.0011 10.1353ZM15.0011 11.6663C15.7526 11.6663 16.4734 11.9649 17.0048 12.4963C17.5362 13.0277 17.8348 13.7485 17.8348 14.5C17.8348 15.2515 17.5362 15.9723 17.0048 16.5037C16.4734 17.0351 15.7526 17.3337 15.0011 17.3337C14.2495 17.3337 13.5288 17.0351 12.9973 16.5037C12.4659 15.9723 12.1674 15.2515 12.1674 14.5C12.1674 13.7485 12.4659 13.0277 12.9973 12.4963C13.5288 11.9649 14.2495 11.6663 15.0011 11.6663Z" fill="white"/>
</g>
<defs>
<clipPath id="clip0_48_532">
<rect width="17" height="17" fill="white" transform="translate(6.5 6)"/>
</clipPath>
</defs>
</svg>
