<svg width="12" height="13" viewBox="0 0 12 13" fill="none" xmlns="http://www.w3.org/2000/svg">
<g clip-path="url(#clip0_1409_7009)">
<rect width="12" height="12" transform="translate(0 0.5)" fill="white" fill-opacity="0.01"/>
<path fill-rule="evenodd" clip-rule="evenodd" d="M8.51519 1.73371C8.55012 1.76854 8.57782 1.80992 8.59673 1.85548C8.61563 1.90104 8.62536 1.94988 8.62536 1.99921C8.62536 2.04853 8.61563 2.09737 8.59673 2.14293C8.57782 2.18849 8.55012 2.22987 8.51519 2.26471L4.27994 6.49921L8.51519 10.7337C8.58561 10.8041 8.62517 10.8996 8.62517 10.9992C8.62517 11.0988 8.58561 11.1943 8.51519 11.2647C8.44478 11.3351 8.34928 11.3747 8.24969 11.3747C8.15011 11.3747 8.05461 11.3351 7.98419 11.2647L3.48419 6.76471C3.44927 6.72987 3.42156 6.68849 3.40266 6.64293C3.38375 6.59737 3.37402 6.54853 3.37402 6.49921C3.37402 6.44988 3.38375 6.40104 3.40266 6.35548C3.42156 6.30992 3.44927 6.26854 3.48419 6.23371L7.98419 1.73371C8.01903 1.69878 8.06041 1.67108 8.10597 1.65217C8.15153 1.63327 8.20037 1.62354 8.24969 1.62354C8.29902 1.62354 8.34786 1.63327 8.39342 1.65217C8.43898 1.67108 8.48036 1.69878 8.51519 1.73371Z" fill="#ADB5BD"/>
</g>
<defs>
<clipPath id="clip0_1409_7009">
<rect width="12" height="12" fill="white" transform="translate(0 0.5)"/>
</clipPath>
</defs>
</svg>
