<svg width="108" height="19" viewBox="0 0 108 19" fill="none" xmlns="http://www.w3.org/2000/svg">
<path d="M3.648 14.088C3.744 14.488 3.904 14.792 4.128 15C4.368 15.208 4.632 15.36 4.92 15.456C5.224 15.536 5.528 15.576 5.832 15.576C6.392 15.576 6.832 15.472 7.152 15.264C7.472 15.04 7.632 14.76 7.632 14.424C7.632 14.136 7.52 13.912 7.296 13.752C7.072 13.576 6.784 13.44 6.432 13.344C6.096 13.248 5.736 13.16 5.352 13.08C4.92 12.968 4.456 12.848 3.96 12.72C3.48 12.576 3.024 12.376 2.592 12.12C2.16 11.864 1.8 11.536 1.512 11.136C1.24 10.72 1.104 10.2 1.104 9.576C1.104 8.824 1.304 8.176 1.704 7.632C2.104 7.072 2.664 6.632 3.384 6.312C4.12 5.992 4.968 5.832 5.928 5.832C7.064 5.832 8.024 6.072 8.808 6.552C9.592 7.032 10.16 7.72 10.512 8.616L7.824 9.384C7.728 9.16 7.584 8.976 7.392 8.832C7.2 8.688 6.968 8.584 6.696 8.52C6.44 8.456 6.176 8.424 5.904 8.424C5.44 8.424 5.056 8.52 4.752 8.712C4.448 8.888 4.296 9.136 4.296 9.456C4.296 9.648 4.352 9.808 4.464 9.936C4.576 10.048 4.728 10.144 4.92 10.224C5.128 10.304 5.36 10.376 5.616 10.44C5.888 10.504 6.184 10.576 6.504 10.656C7 10.784 7.496 10.936 7.992 11.112C8.504 11.272 8.968 11.48 9.384 11.736C9.816 11.992 10.16 12.336 10.416 12.768C10.672 13.2 10.816 13.744 10.848 14.4C10.848 15.104 10.648 15.744 10.248 16.32C9.848 16.88 9.272 17.328 8.52 17.664C7.768 18 6.856 18.168 5.784 18.168C4.536 18.168 3.472 17.904 2.592 17.376C1.728 16.848 1.16 16.024 0.888 14.904L3.648 14.088ZM18.9188 18H15.7748L12.2228 6H15.3908L17.3828 14.112L19.4948 6H22.5668L24.6068 14.112L26.5748 6H29.7188L26.1668 18H22.9508L20.9588 10.464L18.9188 18ZM32.0835 6H35.1555V18H32.0835V6ZM33.6435 4.464C33.0675 4.464 32.5955 4.28 32.2275 3.912C31.8595 3.544 31.6755 3.104 31.6755 2.592C31.6755 2.064 31.8595 1.624 32.2275 1.272C32.5955 0.903999 33.0675 0.719999 33.6435 0.719999C34.1875 0.719999 34.6435 0.903999 35.0115 1.272C35.3955 1.624 35.5875 2.064 35.5875 2.592C35.5875 3.104 35.3955 3.544 35.0115 3.912C34.6435 4.28 34.1875 4.464 33.6435 4.464ZM39.0953 4.92C39.0953 3.88 39.2793 3.032 39.6473 2.376C40.0313 1.72 40.5913 1.248 41.3273 0.959999C42.0793 0.671999 43.0153 0.591999 44.1353 0.719999V3.432C43.4313 3.336 42.9273 3.432 42.6233 3.72C42.3353 4.008 42.1913 4.456 42.1913 5.064V6H44.2553V8.712H42.1913V18H39.0953V8.712H37.6793V6H39.0953V4.92ZM47.3051 6V2.64H50.4011V6H53.0651V8.712H50.4011V13.584C50.4011 14.208 50.5371 14.648 50.8091 14.904C51.0811 15.16 51.4171 15.296 51.8171 15.312C52.2331 15.328 52.6491 15.304 53.0651 15.24V17.88C52.3291 18.04 51.6091 18.088 50.9051 18.024C50.2171 17.96 49.6011 17.776 49.0571 17.472C48.5131 17.152 48.0811 16.672 47.7611 16.032C47.4571 15.392 47.3051 14.576 47.3051 13.584V8.712H45.6011V6H47.3051Z" fill="#343A40"/>
<path d="M54.6056 9.6C54.6056 8.336 54.8136 7.184 55.2296 6.144C55.6616 5.088 56.2616 4.184 57.0296 3.432C57.7976 2.664 58.6936 2.072 59.7176 1.656C60.7576 1.24 61.8776 1.032 63.0776 1.032C64.8056 1.032 66.3336 1.448 67.6616 2.28C69.0056 3.096 70.0136 4.272 70.6856 5.808L67.9736 6.6C67.6216 5.928 67.1816 5.384 66.6536 4.968C66.1416 4.552 65.5816 4.248 64.9736 4.056C64.3656 3.864 63.7496 3.768 63.1256 3.768C62.1016 3.768 61.1896 4.016 60.3896 4.512C59.5896 4.992 58.9656 5.672 58.5176 6.552C58.0856 7.432 57.8696 8.448 57.8696 9.6C57.8696 10.752 58.0856 11.768 58.5176 12.648C58.9656 13.512 59.5896 14.192 60.3896 14.688C61.1896 15.184 62.1016 15.432 63.1256 15.432C63.7656 15.432 64.3976 15.336 65.0216 15.144C65.6616 14.936 66.2536 14.592 66.7976 14.112C67.3416 13.632 67.8056 12.992 68.1896 12.192L70.8536 12.936C70.1656 14.68 69.1416 15.992 67.7816 16.872C66.4216 17.736 64.8536 18.168 63.0776 18.168C61.8776 18.168 60.7576 17.96 59.7176 17.544C58.6936 17.128 57.7976 16.536 57.0296 15.768C56.2616 15 55.6616 14.096 55.2296 13.056C54.8136 12 54.6056 10.848 54.6056 9.6ZM83.1857 6.384C83.1857 5.632 82.9537 5.032 82.4897 4.584C82.0417 4.136 81.3377 3.912 80.3777 3.912H76.8017V8.88H80.3777C81.0177 8.88 81.5457 8.784 81.9617 8.592C82.3777 8.384 82.6817 8.096 82.8737 7.728C83.0817 7.344 83.1857 6.896 83.1857 6.384ZM80.4737 1.2C81.8337 1.2 82.9537 1.44 83.8337 1.92C84.7297 2.384 85.3937 3.016 85.8257 3.816C86.2737 4.6 86.4977 5.456 86.4977 6.384C86.4977 7.008 86.3857 7.632 86.1617 8.256C85.9377 8.864 85.5857 9.424 85.1057 9.936C84.6257 10.432 84.0017 10.832 83.2337 11.136C82.4817 11.44 81.5617 11.592 80.4737 11.592H76.8017V18H73.5617V1.2H80.4737ZM82.2977 10.512L86.8337 18H83.2097L78.8657 10.512H82.2977ZM92.5517 18H89.3117V1.2H93.0077L98.3597 13.776L103.712 1.2H107.408V18H104.168V7.152L99.6317 18H97.0877L92.5517 7.152V18Z" fill="#9A55FF"/>
</svg>
