<svg width="142" height="36" viewBox="0 0 142 36" fill="none" xmlns="http://www.w3.org/2000/svg">
<path d="M19.648 22.088C19.744 22.488 19.904 22.792 20.128 23C20.368 23.208 20.632 23.36 20.92 23.456C21.224 23.536 21.528 23.576 21.832 23.576C22.392 23.576 22.832 23.472 23.152 23.264C23.472 23.04 23.632 22.76 23.632 22.424C23.632 22.136 23.52 21.912 23.296 21.752C23.072 21.576 22.784 21.44 22.432 21.344C22.096 21.248 21.736 21.16 21.352 21.08C20.92 20.968 20.456 20.848 19.96 20.72C19.48 20.576 19.024 20.376 18.592 20.12C18.16 19.864 17.8 19.536 17.512 19.136C17.24 18.72 17.104 18.2 17.104 17.576C17.104 16.824 17.304 16.176 17.704 15.632C18.104 15.072 18.664 14.632 19.384 14.312C20.12 13.992 20.968 13.832 21.928 13.832C23.064 13.832 24.024 14.072 24.808 14.552C25.592 15.032 26.16 15.72 26.512 16.616L23.824 17.384C23.728 17.16 23.584 16.976 23.392 16.832C23.2 16.688 22.968 16.584 22.696 16.52C22.44 16.456 22.176 16.424 21.904 16.424C21.44 16.424 21.056 16.52 20.752 16.712C20.448 16.888 20.296 17.136 20.296 17.456C20.296 17.648 20.352 17.808 20.464 17.936C20.576 18.048 20.728 18.144 20.92 18.224C21.128 18.304 21.36 18.376 21.616 18.44C21.888 18.504 22.184 18.576 22.504 18.656C23 18.784 23.496 18.936 23.992 19.112C24.504 19.272 24.968 19.48 25.384 19.736C25.816 19.992 26.16 20.336 26.416 20.768C26.672 21.2 26.816 21.744 26.848 22.4C26.848 23.104 26.648 23.744 26.248 24.32C25.848 24.88 25.272 25.328 24.52 25.664C23.768 26 22.856 26.168 21.784 26.168C20.536 26.168 19.472 25.904 18.592 25.376C17.728 24.848 17.16 24.024 16.888 22.904L19.648 22.088ZM34.9188 26H31.7748L28.2228 14H31.3908L33.3828 22.112L35.4948 14H38.5668L40.6068 22.112L42.5748 14H45.7188L42.1668 26H38.9508L36.9588 18.464L34.9188 26ZM48.0835 14H51.1555V26H48.0835V14ZM49.6435 12.464C49.0675 12.464 48.5955 12.28 48.2275 11.912C47.8595 11.544 47.6755 11.104 47.6755 10.592C47.6755 10.064 47.8595 9.624 48.2275 9.272C48.5955 8.904 49.0675 8.72 49.6435 8.72C50.1875 8.72 50.6435 8.904 51.0115 9.272C51.3955 9.624 51.5875 10.064 51.5875 10.592C51.5875 11.104 51.3955 11.544 51.0115 11.912C50.6435 12.28 50.1875 12.464 49.6435 12.464ZM55.0953 12.92C55.0953 11.88 55.2793 11.032 55.6473 10.376C56.0313 9.72 56.5913 9.248 57.3273 8.96C58.0793 8.672 59.0153 8.592 60.1353 8.72V11.432C59.4313 11.336 58.9273 11.432 58.6233 11.72C58.3353 12.008 58.1913 12.456 58.1913 13.064V14H60.2553V16.712H58.1913V26H55.0953V16.712H53.6793V14H55.0953V12.92ZM63.3051 14V10.64H66.4011V14H69.0651V16.712H66.4011V21.584C66.4011 22.208 66.5371 22.648 66.8091 22.904C67.0811 23.16 67.4171 23.296 67.8171 23.312C68.2331 23.328 68.6491 23.304 69.0651 23.24V25.88C68.3291 26.04 67.6091 26.088 66.9051 26.024C66.2171 25.96 65.6011 25.776 65.0571 25.472C64.5131 25.152 64.0811 24.672 63.7611 24.032C63.4571 23.392 63.3051 22.576 63.3051 21.584V16.712H61.6011V14H63.3051Z" fill="#343A40"/>
<path d="M70.6056 17.6C70.6056 16.336 70.8136 15.184 71.2296 14.144C71.6616 13.088 72.2616 12.184 73.0296 11.432C73.7976 10.664 74.6936 10.072 75.7176 9.656C76.7576 9.24 77.8776 9.032 79.0776 9.032C80.8056 9.032 82.3336 9.448 83.6616 10.28C85.0056 11.096 86.0136 12.272 86.6856 13.808L83.9736 14.6C83.6216 13.928 83.1816 13.384 82.6536 12.968C82.1416 12.552 81.5816 12.248 80.9736 12.056C80.3656 11.864 79.7496 11.768 79.1256 11.768C78.1016 11.768 77.1896 12.016 76.3896 12.512C75.5896 12.992 74.9656 13.672 74.5176 14.552C74.0856 15.432 73.8696 16.448 73.8696 17.6C73.8696 18.752 74.0856 19.768 74.5176 20.648C74.9656 21.512 75.5896 22.192 76.3896 22.688C77.1896 23.184 78.1016 23.432 79.1256 23.432C79.7656 23.432 80.3976 23.336 81.0216 23.144C81.6616 22.936 82.2536 22.592 82.7976 22.112C83.3416 21.632 83.8056 20.992 84.1896 20.192L86.8536 20.936C86.1656 22.68 85.1416 23.992 83.7816 24.872C82.4216 25.736 80.8536 26.168 79.0776 26.168C77.8776 26.168 76.7576 25.96 75.7176 25.544C74.6936 25.128 73.7976 24.536 73.0296 23.768C72.2616 23 71.6616 22.096 71.2296 21.056C70.8136 20 70.6056 18.848 70.6056 17.6ZM99.1857 14.384C99.1857 13.632 98.9537 13.032 98.4897 12.584C98.0417 12.136 97.3377 11.912 96.3777 11.912H92.8017V16.88H96.3777C97.0177 16.88 97.5457 16.784 97.9617 16.592C98.3777 16.384 98.6817 16.096 98.8737 15.728C99.0817 15.344 99.1857 14.896 99.1857 14.384ZM96.4737 9.2C97.8337 9.2 98.9537 9.44 99.8337 9.92C100.73 10.384 101.394 11.016 101.826 11.816C102.274 12.6 102.498 13.456 102.498 14.384C102.498 15.008 102.386 15.632 102.162 16.256C101.938 16.864 101.586 17.424 101.106 17.936C100.626 18.432 100.002 18.832 99.2337 19.136C98.4817 19.44 97.5617 19.592 96.4737 19.592H92.8017V26H89.5617V9.2H96.4737ZM98.2977 18.512L102.834 26H99.2097L94.8657 18.512H98.2977ZM108.552 26H105.312V9.2H109.008L114.36 21.776L119.712 9.2H123.408V26H120.168V15.152L115.632 26H113.088L108.552 15.152V26Z" fill="#9A55FF"/>
</svg>
