<svg width="14" height="14" viewBox="0 0 14 14" fill="none" xmlns="http://www.w3.org/2000/svg">
<g clip-path="url(#clip0_568_211)">
<rect width="14" height="14" fill="white" fill-opacity="0.01"/>
<g clip-path="url(#clip1_568_211)">
<path d="M6.99981 4.15931C6.62682 4.15931 6.25748 4.23278 5.91289 4.37551C5.5683 4.51825 5.25519 4.72746 4.99145 4.9912C4.72771 5.25494 4.51849 5.56805 4.37576 5.91265C4.23302 6.25724 4.15956 6.62658 4.15956 6.99956C4.15956 7.37255 4.23302 7.74188 4.37576 8.08648C4.51849 8.43107 4.72771 8.74418 4.99145 9.00792C5.25519 9.27166 5.5683 9.48088 5.91289 9.62361C6.25748 9.76635 6.62682 9.83981 6.99981 9.83981C7.75309 9.83981 8.47552 9.54057 9.00817 9.00792C9.54082 8.47527 9.84006 7.75284 9.84006 6.99956C9.84006 6.24628 9.54082 5.52385 9.00817 4.9912C8.47552 4.45855 7.75309 4.15931 6.99981 4.15931ZM5.03456 6.99956C5.03456 6.47835 5.24161 5.97848 5.61016 5.60992C5.97872 5.24136 6.47859 5.03431 6.99981 5.03431C7.52102 5.03431 8.02089 5.24136 8.38945 5.60992C8.758 5.97848 8.96506 6.47835 8.96506 6.99956C8.96506 7.52078 8.758 8.02065 8.38945 8.3892C8.02089 8.75776 7.52102 8.96481 6.99981 8.96481C6.47859 8.96481 5.97872 8.75776 5.61016 8.3892C5.24161 8.02065 5.03456 7.52078 5.03456 6.99956Z" fill="#212529"/>
<path d="M8.57131 1.17469C8.11018 -0.391562 5.88943 -0.391562 5.42831 1.17469L5.34606 1.45381C5.31385 1.56315 5.25759 1.66389 5.1814 1.74865C5.1052 1.83342 5.011 1.90005 4.90571 1.94368C4.80041 1.98731 4.68668 2.00682 4.57287 2.00079C4.45905 1.99476 4.34802 1.96333 4.24793 1.90881L3.99243 1.76881C2.55743 0.988313 0.988557 2.55806 1.76993 3.99219L1.90906 4.24769C1.96357 4.34778 1.995 4.45881 2.00103 4.57262C2.00707 4.68644 1.98756 4.80017 1.94393 4.90546C1.9003 5.01076 1.83366 5.10496 1.7489 5.18115C1.66413 5.25735 1.56339 5.31361 1.45406 5.34581L1.17493 5.42806C-0.391318 5.88919 -0.391318 8.10994 1.17493 8.57106L1.45406 8.65331C1.56339 8.68552 1.66413 8.74178 1.7489 8.81797C1.83366 8.89417 1.9003 8.98837 1.94393 9.09366C1.98756 9.19896 2.00707 9.31269 2.00103 9.4265C1.995 9.54032 1.96357 9.65135 1.90906 9.75144L1.76906 10.0069C0.988557 11.4419 2.55743 13.0117 3.99243 12.2294L4.24793 12.0903C4.34802 12.0358 4.45905 12.0044 4.57287 11.9983C4.68668 11.9923 4.80041 12.0118 4.90571 12.0554C5.011 12.0991 5.1052 12.1657 5.1814 12.2505C5.25759 12.3352 5.31385 12.436 5.34606 12.5453L5.42831 12.8244C5.88943 14.3907 8.11018 14.3907 8.57131 12.8244L8.65356 12.5453C8.68576 12.436 8.74202 12.3352 8.81822 12.2505C8.89441 12.1657 8.98861 12.0991 9.09391 12.0554C9.1992 12.0118 9.31293 11.9923 9.42675 11.9983C9.54056 12.0044 9.65159 12.0358 9.75168 12.0903L10.0072 12.2303C11.4422 13.0117 13.0119 11.4411 12.2297 10.0069L12.0906 9.75144C12.036 9.65135 12.0046 9.54032 11.9986 9.4265C11.9925 9.31269 12.0121 9.19896 12.0557 9.09366C12.0993 8.98837 12.166 8.89417 12.2507 8.81797C12.3355 8.74178 12.4362 8.68552 12.5456 8.65331L12.8247 8.57106C14.3909 8.10994 14.3909 5.88919 12.8247 5.42806L12.5456 5.34581C12.4362 5.31361 12.3355 5.25735 12.2507 5.18115C12.166 5.10496 12.0993 5.01076 12.0557 4.90546C12.0121 4.80017 11.9925 4.68644 11.9986 4.57262C12.0046 4.45881 12.036 4.34778 12.0906 4.24769L12.2306 3.99219C13.0119 2.55719 11.4413 0.988313 10.0072 1.76969L9.75168 1.90881C9.65159 1.96333 9.54056 1.99476 9.42675 2.00079C9.31293 2.00682 9.1992 1.98731 9.09391 1.94368C8.98861 1.90005 8.89441 1.83342 8.81822 1.74865C8.74202 1.66389 8.68576 1.56315 8.65356 1.45381L8.57131 1.17469ZM6.26743 1.42231C6.48268 0.691687 7.51693 0.691687 7.73218 1.42231L7.81443 1.70144C7.88357 1.93601 8.00434 2.15214 8.16787 2.33397C8.3314 2.51581 8.53355 2.65874 8.7595 2.75229C8.98545 2.84585 9.22947 2.88765 9.47368 2.87463C9.71789 2.86161 9.95608 2.79411 10.1708 2.67706L10.4254 2.53706C11.0939 2.17394 11.8254 2.90456 11.4614 3.57394L11.3223 3.82944C11.2054 4.04419 11.1381 4.28236 11.1252 4.52651C11.1123 4.77066 11.1543 5.0146 11.2479 5.24045C11.3415 5.4663 11.4845 5.66834 11.6663 5.83177C11.8482 5.99519 12.0643 6.11586 12.2988 6.18494L12.5771 6.26719C13.3077 6.48244 13.3077 7.51669 12.5771 7.73194L12.2979 7.81419C12.0634 7.88333 11.8472 8.00409 11.6654 8.16762C11.4836 8.33115 11.3406 8.5333 11.2471 8.75925C11.1535 8.98521 11.1117 9.22923 11.1247 9.47343C11.1378 9.71764 11.2053 9.95584 11.3223 10.1706L11.4623 10.4252C11.8254 11.0937 11.0948 11.8252 10.4254 11.4612L10.1708 11.3221C9.95602 11.205 9.71777 11.1376 9.47351 11.1246C9.22926 11.1116 8.9852 11.1535 8.75924 11.2472C8.53328 11.3408 8.33114 11.4838 8.16765 11.6658C8.00416 11.8477 7.88347 12.0639 7.81443 12.2986L7.73218 12.5768C7.51693 13.3074 6.48268 13.3074 6.26743 12.5768L6.18518 12.2977C6.11601 12.0632 5.99527 11.8472 5.8318 11.6655C5.66833 11.4837 5.46627 11.3409 5.24044 11.2473C5.0146 11.1538 4.77069 11.1119 4.52659 11.1249C4.28249 11.1378 4.04437 11.2052 3.82968 11.3221L3.57418 11.4621C2.90568 11.8252 2.17418 11.0946 2.53818 10.4252L2.67731 10.1706C2.79451 9.9558 2.86215 9.71753 2.87525 9.47322C2.88836 9.22891 2.8466 8.98476 2.75303 8.7587C2.65947 8.53263 2.51648 8.33039 2.33455 8.1668C2.15262 8.00321 1.93638 7.88243 1.70168 7.81331L1.42256 7.73106C0.691932 7.51581 0.691932 6.48156 1.42256 6.26631L1.70168 6.18406C1.93601 6.11486 2.1519 5.99413 2.33356 5.83073C2.51521 5.66732 2.65803 5.46536 2.75155 5.23964C2.84508 5.01391 2.88695 4.77013 2.87411 4.52613C2.86126 4.28213 2.79402 4.04409 2.67731 3.82944L2.53731 3.57394C2.17418 2.90544 2.90481 2.17394 3.57418 2.53794L3.82968 2.67706C4.04437 2.79394 4.28249 2.86131 4.52659 2.87425C4.77069 2.88718 5.0146 2.84534 5.24044 2.7518C5.46627 2.65826 5.66833 2.51539 5.8318 2.33364C5.99527 2.1519 6.11601 1.93589 6.18518 1.70144L6.26743 1.42231Z" fill="#212529"/>
</g>
</g>
<defs>
<clipPath id="clip0_568_211">
<rect width="14" height="14" fill="white"/>
</clipPath>
<clipPath id="clip1_568_211">
<rect width="14" height="14" fill="white"/>
</clipPath>
</defs>
</svg>
