<svg width="14" height="14" viewBox="0 0 14 14" fill="none" xmlns="http://www.w3.org/2000/svg">
<g clip-path="url(#clip0_568_596)">
<rect width="14" height="14" fill="white" fill-opacity="0.01"/>
<g clip-path="url(#clip1_568_596)">
<path d="M9.62476 1.74902C9.62476 1.51696 9.71694 1.2944 9.88104 1.1303C10.0451 0.966211 10.2677 0.874023 10.4998 0.874023H12.2498C12.4818 0.874023 12.7044 0.966211 12.8685 1.1303C13.0326 1.2944 13.1248 1.51696 13.1248 1.74902V12.249H13.5623C13.6783 12.249 13.7896 12.2951 13.8716 12.3772C13.9537 12.4592 13.9998 12.5705 13.9998 12.6865C13.9998 12.8026 13.9537 12.9138 13.8716 12.9959C13.7896 13.0779 13.6783 13.124 13.5623 13.124H0.437256C0.321224 13.124 0.209944 13.0779 0.127897 12.9959C0.0458495 12.9138 -0.000244141 12.8026 -0.000244141 12.6865C-0.000244141 12.5705 0.0458495 12.4592 0.127897 12.3772C0.209944 12.2951 0.321224 12.249 0.437256 12.249H0.874756V9.62402C0.874756 9.39196 0.966943 9.1694 1.13104 9.00531C1.29513 8.84121 1.51769 8.74902 1.74976 8.74902H3.49976C3.73182 8.74902 3.95438 8.84121 4.11847 9.00531C4.28257 9.1694 4.37476 9.39196 4.37476 9.62402V12.249H5.24976V6.12402C5.24976 5.89196 5.34194 5.6694 5.50604 5.50531C5.67013 5.34121 5.89269 5.24902 6.12476 5.24902H7.87476C8.10682 5.24902 8.32938 5.34121 8.49347 5.50531C8.65757 5.6694 8.74976 5.89196 8.74976 6.12402V12.249H9.62476V1.74902ZM10.4998 12.249H12.2498V1.74902H10.4998V12.249ZM7.87476 12.249V6.12402H6.12476V12.249H7.87476ZM3.49976 12.249V9.62402H1.74976V12.249H3.49976Z" fill="#212529"/>
</g>
</g>
<defs>
<clipPath id="clip0_568_596">
<rect width="14" height="14" fill="white"/>
</clipPath>
<clipPath id="clip1_568_596">
<rect width="14" height="14" fill="white"/>
</clipPath>
</defs>
</svg>
