<svg width="14" height="14" viewBox="0 0 14 14" fill="none" xmlns="http://www.w3.org/2000/svg">
<g clip-path="url(#clip0_568_512)">
<rect width="14" height="14" fill="white" fill-opacity="0.01"/>
<g clip-path="url(#clip1_568_512)">
<path d="M6.99976 13.9988C7.46388 13.9988 7.909 13.8144 8.23719 13.4862C8.56538 13.1581 8.74976 12.7129 8.74976 12.2488H5.24976C5.24976 12.7129 5.43413 13.1581 5.76232 13.4862C6.09051 13.8144 6.53563 13.9988 6.99976 13.9988ZM6.99976 1.67706L6.30238 1.81794C5.51135 1.97911 4.80029 2.40865 4.28958 3.03386C3.77886 3.65906 3.49984 4.44152 3.49976 5.24881C3.49976 5.79831 3.38251 7.17119 3.09813 8.52306C2.95813 9.19419 2.76913 9.89331 2.51801 10.4988H11.4815C11.2304 9.89331 11.0423 9.19506 10.9014 8.52306C10.617 7.17119 10.4998 5.79831 10.4998 5.24881C10.4995 4.44168 10.2204 3.65942 9.70966 3.03439C9.19896 2.40937 8.48802 1.97996 7.69713 1.81881L6.99976 1.67619V1.67706ZM12.4423 10.4988C12.6374 10.8899 12.8631 11.1997 13.1248 11.3738H0.874756C1.13638 11.1997 1.36213 10.8899 1.55726 10.4988C2.34476 8.92381 2.62476 6.01881 2.62476 5.24881C2.62476 3.13131 4.12976 1.36381 6.12913 0.960437C6.11692 0.838772 6.13034 0.715898 6.16854 0.599739C6.20673 0.48358 6.26884 0.376716 6.35088 0.286038C6.43291 0.195361 6.53303 0.122883 6.6448 0.0732789C6.75656 0.0236752 6.87748 -0.00195312 6.99976 -0.00195312C7.12203 -0.00195313 7.24295 0.0236752 7.35472 0.0732789C7.46648 0.122883 7.56661 0.195361 7.64864 0.286038C7.73067 0.376716 7.79278 0.48358 7.83098 0.599739C7.86917 0.715898 7.88259 0.838772 7.87038 0.960437C8.85938 1.1616 9.74846 1.69838 10.3871 2.47988C11.0257 3.26137 11.3746 4.23957 11.3748 5.24881C11.3748 6.01881 11.6548 8.92381 12.4423 10.4988Z" fill="#212529"/>
</g>
</g>
<defs>
<clipPath id="clip0_568_512">
<rect width="14" height="14" fill="white"/>
</clipPath>
<clipPath id="clip1_568_512">
<rect width="14" height="14" fill="white"/>
</clipPath>
</defs>
</svg>
