<svg width="14" height="14" viewBox="0 0 14 14" fill="none" xmlns="http://www.w3.org/2000/svg">
<g clip-path="url(#clip0_568_568)">
<rect width="14" height="14" fill="white" fill-opacity="0.01"/>
<g clip-path="url(#clip1_568_568)">
<path  d="M-0.000244141 2.18652C-0.000244141 2.07049 0.0458495 1.95921 0.127897 1.87716C0.209944 1.79512 0.321224 1.74902 0.437256 1.74902H1.74976C1.84735 1.74905 1.94212 1.78171 2.01902 1.8418C2.09592 1.90188 2.15051 1.98596 2.17413 2.08065L2.52851 3.49902H12.6873C12.7537 3.49904 12.8193 3.5142 12.879 3.54334C12.9387 3.57249 12.991 3.61486 13.0319 3.66723C13.0728 3.71961 13.1013 3.78061 13.1151 3.84562C13.1289 3.91062 13.1277 3.97792 13.1116 4.0424L11.7991 9.2924C11.7755 9.38709 11.7209 9.47116 11.644 9.53125C11.5671 9.59134 11.4723 9.624 11.3748 9.62402H3.49976C3.40217 9.624 3.30739 9.59134 3.23049 9.53125C3.1536 9.47116 3.099 9.38709 3.07538 9.2924L1.40851 2.62402H0.437256C0.321224 2.62402 0.209944 2.57793 0.127897 2.49588C0.0458495 2.41384 -0.000244141 2.30256 -0.000244141 2.18652ZM2.74726 4.37402L3.84101 8.74902H11.0335L12.1273 4.37402H2.74726ZM4.37476 11.374C4.14269 11.374 3.92013 11.4662 3.75604 11.6303C3.59194 11.7944 3.49976 12.017 3.49976 12.249C3.49976 12.4811 3.59194 12.7036 3.75604 12.8677C3.92013 13.0318 4.14269 13.124 4.37476 13.124C4.60682 13.124 4.82938 13.0318 4.99347 12.8677C5.15757 12.7036 5.24976 12.4811 5.24976 12.249C5.24976 12.017 5.15757 11.7944 4.99347 11.6303C4.82938 11.4662 4.60682 11.374 4.37476 11.374ZM2.62476 12.249C2.62476 11.7849 2.80913 11.3398 3.13732 11.0116C3.46551 10.6834 3.91063 10.499 4.37476 10.499C4.83888 10.499 5.284 10.6834 5.61219 11.0116C5.94038 11.3398 6.12476 11.7849 6.12476 12.249C6.12476 12.7132 5.94038 13.1583 5.61219 13.4865C5.284 13.8146 4.83888 13.999 4.37476 13.999C3.91063 13.999 3.46551 13.8146 3.13732 13.4865C2.80913 13.1583 2.62476 12.7132 2.62476 12.249ZM10.4998 11.374C10.2677 11.374 10.0451 11.4662 9.88104 11.6303C9.71694 11.7944 9.62476 12.017 9.62476 12.249C9.62476 12.4811 9.71694 12.7036 9.88104 12.8677C10.0451 13.0318 10.2677 13.124 10.4998 13.124C10.7318 13.124 10.9544 13.0318 11.1185 12.8677C11.2826 12.7036 11.3748 12.4811 11.3748 12.249C11.3748 12.017 11.2826 11.7944 11.1185 11.6303C10.9544 11.4662 10.7318 11.374 10.4998 11.374ZM8.74976 12.249C8.74976 11.7849 8.93413 11.3398 9.26232 11.0116C9.59051 10.6834 10.0356 10.499 10.4998 10.499C10.9639 10.499 11.409 10.6834 11.7372 11.0116C12.0654 11.3398 12.2498 11.7849 12.2498 12.249C12.2498 12.7132 12.0654 13.1583 11.7372 13.4865C11.409 13.8146 10.9639 13.999 10.4998 13.999C10.0356 13.999 9.59051 13.8146 9.26232 13.4865C8.93413 13.1583 8.74976 12.7132 8.74976 12.249Z" fill="#212529"/>
</g>
</g>
<defs>
<clipPath id="clip0_568_568">
<rect width="14" height="14" fill="white"/>
</clipPath>
<clipPath id="clip1_568_568">
<rect width="14" height="14" fill="white"/>
</clipPath>
</defs>
</svg>
