<svg width="14" height="14" viewBox="0 0 14 14" fill="none" xmlns="http://www.w3.org/2000/svg">
<g clip-path="url(#clip0_568_8581)">
<rect width="14" height="14" fill="white" fill-opacity="0.01"/>
<g clip-path="url(#clip1_568_8581)">
<path d="M0.875 2.18652C0.875 1.83843 1.01328 1.50459 1.25942 1.25845C1.50556 1.0123 1.8394 0.874023 2.1875 0.874023H4.8125C5.1606 0.874023 5.49444 1.0123 5.74058 1.25845C5.98672 1.50459 6.125 1.83843 6.125 2.18652V4.81152C6.125 5.15962 5.98672 5.49346 5.74058 5.7396C5.49444 5.98574 5.1606 6.12402 4.8125 6.12402H2.1875C1.8394 6.12402 1.50556 5.98574 1.25942 5.7396C1.01328 5.49346 0.875 5.15962 0.875 4.81152V2.18652ZM2.1875 1.74902C2.07147 1.74902 1.96019 1.79512 1.87814 1.87716C1.79609 1.95921 1.75 2.07049 1.75 2.18652V4.81152C1.75 4.92756 1.79609 5.03884 1.87814 5.12088C1.96019 5.20293 2.07147 5.24902 2.1875 5.24902H4.8125C4.92853 5.24902 5.03981 5.20293 5.12186 5.12088C5.20391 5.03884 5.25 4.92756 5.25 4.81152V2.18652C5.25 2.07049 5.20391 1.95921 5.12186 1.87716C5.03981 1.79512 4.92853 1.74902 4.8125 1.74902H2.1875ZM7.875 2.18652C7.875 1.83843 8.01328 1.50459 8.25942 1.25845C8.50556 1.0123 8.8394 0.874023 9.1875 0.874023H11.8125C12.1606 0.874023 12.4944 1.0123 12.7406 1.25845C12.9867 1.50459 13.125 1.83843 13.125 2.18652V4.81152C13.125 5.15962 12.9867 5.49346 12.7406 5.7396C12.4944 5.98574 12.1606 6.12402 11.8125 6.12402H9.1875C8.8394 6.12402 8.50556 5.98574 8.25942 5.7396C8.01328 5.49346 7.875 5.15962 7.875 4.81152V2.18652ZM9.1875 1.74902C9.07147 1.74902 8.96019 1.79512 8.87814 1.87716C8.79609 1.95921 8.75 2.07049 8.75 2.18652V4.81152C8.75 4.92756 8.79609 5.03884 8.87814 5.12088C8.96019 5.20293 9.07147 5.24902 9.1875 5.24902H11.8125C11.9285 5.24902 12.0398 5.20293 12.1219 5.12088C12.2039 5.03884 12.25 4.92756 12.25 4.81152V2.18652C12.25 2.07049 12.2039 1.95921 12.1219 1.87716C12.0398 1.79512 11.9285 1.74902 11.8125 1.74902H9.1875ZM0.875 9.18652C0.875 8.83843 1.01328 8.50459 1.25942 8.25845C1.50556 8.0123 1.8394 7.87402 2.1875 7.87402H4.8125C5.1606 7.87402 5.49444 8.0123 5.74058 8.25845C5.98672 8.50459 6.125 8.83843 6.125 9.18652V11.8115C6.125 12.1596 5.98672 12.4935 5.74058 12.7396C5.49444 12.9857 5.1606 13.124 4.8125 13.124H2.1875C1.8394 13.124 1.50556 12.9857 1.25942 12.7396C1.01328 12.4935 0.875 12.1596 0.875 11.8115V9.18652ZM2.1875 8.74902C2.07147 8.74902 1.96019 8.79512 1.87814 8.87716C1.79609 8.95921 1.75 9.07049 1.75 9.18652V11.8115C1.75 11.9276 1.79609 12.0388 1.87814 12.1209C1.96019 12.2029 2.07147 12.249 2.1875 12.249H4.8125C4.92853 12.249 5.03981 12.2029 5.12186 12.1209C5.20391 12.0388 5.25 11.9276 5.25 11.8115V9.18652C5.25 9.07049 5.20391 8.95921 5.12186 8.87716C5.03981 8.79512 4.92853 8.74902 4.8125 8.74902H2.1875ZM7.875 9.18652C7.875 8.83843 8.01328 8.50459 8.25942 8.25845C8.50556 8.0123 8.8394 7.87402 9.1875 7.87402H11.8125C12.1606 7.87402 12.4944 8.0123 12.7406 8.25845C12.9867 8.50459 13.125 8.83843 13.125 9.18652V11.8115C13.125 12.1596 12.9867 12.4935 12.7406 12.7396C12.4944 12.9857 12.1606 13.124 11.8125 13.124H9.1875C8.8394 13.124 8.50556 12.9857 8.25942 12.7396C8.01328 12.4935 7.875 12.1596 7.875 11.8115V9.18652ZM9.1875 8.74902C9.07147 8.74902 8.96019 8.79512 8.87814 8.87716C8.79609 8.95921 8.75 9.07049 8.75 9.18652V11.8115C8.75 11.9276 8.79609 12.0388 8.87814 12.1209C8.96019 12.2029 9.07147 12.249 9.1875 12.249H11.8125C11.9285 12.249 12.0398 12.2029 12.1219 12.1209C12.2039 12.0388 12.25 11.9276 12.25 11.8115V9.18652C12.25 9.07049 12.2039 8.95921 12.1219 8.87716C12.0398 8.79512 11.9285 8.74902 11.8125 8.74902H9.1875Z" fill="#212529"/>
</g>
</g>
<defs>
<clipPath id="clip0_568_8581">
<rect width="14" height="14" fill="white"/>
</clipPath>
<clipPath id="clip1_568_8581">
<rect width="14" height="14" fill="white"/>
</clipPath>
</defs>
</svg>
