<svg width="16" height="17" viewBox="0 0 16 17" fill="none" xmlns="http://www.w3.org/2000/svg">
<g clip-path="url(#clip0_662_12462)">
<rect width="16" height="16" transform="translate(0 0.5)" fill="white" fill-opacity="0.01"/>
<g clip-path="url(#clip1_662_12462)">
<path d="M11.7419 10.8431C12.7102 9.52181 13.1439 7.88361 12.9562 6.25627C12.7685 4.62893 11.9733 3.13246 10.7297 2.06625C9.48604 1.00004 7.88567 0.442727 6.24876 0.505801C4.61184 0.568874 3.05911 1.24769 1.90119 2.40643C0.743273 3.56518 0.0655718 5.1184 0.00366997 6.75536C-0.0582319 8.39231 0.500231 9.99228 1.56733 11.2352C2.63443 12.4781 4.13147 13.2722 5.75894 13.4587C7.38641 13.6452 9.0243 13.2104 10.3449 12.2411H10.3439C10.3739 12.2811 10.4059 12.3191 10.4419 12.3561L14.2919 16.2061C14.4794 16.3938 14.7338 16.4992 14.9991 16.4993C15.2643 16.4994 15.5188 16.3941 15.7064 16.2066C15.8941 16.0191 15.9995 15.7647 15.9996 15.4995C15.9997 15.2342 15.8944 14.9798 15.7069 14.7921L11.8569 10.9421C11.8212 10.9059 11.7827 10.8725 11.7419 10.8421V10.8431ZM11.9999 6.99912C11.9999 7.72139 11.8577 8.43659 11.5813 9.10388C11.3049 9.77117 10.8997 10.3775 10.389 10.8882C9.87829 11.3989 9.27197 11.8041 8.60468 12.0805C7.93739 12.3569 7.22219 12.4991 6.49992 12.4991C5.77765 12.4991 5.06245 12.3569 4.39516 12.0805C3.72787 11.8041 3.12156 11.3989 2.61083 10.8882C2.10011 10.3775 1.69498 9.77117 1.41858 9.10388C1.14218 8.43659 0.999921 7.72139 0.999921 6.99912C0.999921 5.54043 1.57938 4.14149 2.61083 3.11004C3.64228 2.07859 5.04123 1.49912 6.49992 1.49912C7.95861 1.49912 9.35756 2.07859 10.389 3.11004C11.4205 4.14149 11.9999 5.54043 11.9999 6.99912Z" fill="white"/>
</g>
</g>
<defs>
<clipPath id="clip0_662_12462">
<rect width="16" height="16" fill="white" transform="translate(0 0.5)"/>
</clipPath>
<clipPath id="clip1_662_12462">
<rect width="16" height="16" fill="white" transform="translate(0 0.5)"/>
</clipPath>
</defs>
</svg>
