<svg width="30" height="29" viewBox="0 0 30 29" fill="none" xmlns="http://www.w3.org/2000/svg">
<rect x="0.5" width="29" height="29" rx="14.5" fill="#9A55FF"/>
<g clip-path="url(#clip0_48_534)">
<path d="M11.4684 22.8123C18.6385 22.8123 22.5608 16.8713 22.5608 11.7282C22.5608 11.562 22.5608 11.3933 22.5537 11.2271C23.3173 10.6743 23.9764 9.9899 24.5 9.20597C23.7867 9.52048 23.0308 9.72777 22.2568 9.8211C23.0721 9.33379 23.6827 8.56706 23.9751 7.66341C23.2092 8.11718 22.3708 8.43573 21.4968 8.6051C20.9092 7.97931 20.1317 7.56475 19.2846 7.42562C18.4375 7.28649 17.5682 7.43057 16.8113 7.83552C16.0544 8.24048 15.4522 8.88372 15.0979 9.66561C14.7436 10.4475 14.657 11.3244 14.8516 12.1605C13.3016 12.0828 11.7852 11.6801 10.4009 10.9786C9.01651 10.2771 7.79506 9.29247 6.81575 8.08853C6.31859 8.9472 6.16687 9.96288 6.39139 10.9293C6.61592 11.8958 7.19985 12.7406 8.02462 13.2922C7.40658 13.2712 6.80212 13.1052 6.26 12.8077V12.8611C6.26107 13.7606 6.57268 14.6322 7.14216 15.3284C7.71165 16.0247 8.50408 16.503 9.3855 16.6825C9.05094 16.7746 8.70533 16.8206 8.35831 16.819C8.11367 16.8198 7.86951 16.7971 7.62919 16.7513C7.87831 17.5257 8.36339 18.2027 9.01648 18.6875C9.66957 19.1724 10.458 19.4409 11.2713 19.4553C9.88966 20.5404 8.18304 21.129 6.42625 21.1261C6.11669 21.1274 5.80735 21.1096 5.5 21.0727C7.28305 22.2094 9.35379 22.813 11.4684 22.8123Z" fill="white"/>
</g>
<defs>
<clipPath id="clip0_48_534">
<rect width="19" height="19" fill="white" transform="translate(5.5 5)"/>
</clipPath>
</defs>
</svg>
