<?xml version="1.0" encoding="UTF-8"?>
<svg version="1.1" xmlns="http://www.w3.org/2000/svg" width="252" height="251">
<path d="M0 0 C2.46828326 0.02148456 4.93365799 0.00002951 7.40185547 -0.02539062 C41.07941778 -0.08489863 69.72948572 14.5393677 93.40673828 37.94335938 C116.71713935 61.39874566 129.03126891 93.47844195 129.34326172 126.45898438 C129.00591783 155.51829575 119.62205973 183.81972758 99.96826172 205.52148438 C99.14970703 206.48183594 98.33115234 207.4421875 97.48779297 208.43164062 C77.82048731 231.20159195 49.14741248 247.62713748 18.96826172 250.52148438 C-18.12563332 252.76677047 -50.98798362 245.13311633 -79.55126953 220.33398438 C-82.07500761 218.09402494 -84.55831691 215.81675311 -87.03173828 213.52148438 C-87.62599609 212.99296875 -88.22025391 212.46445313 -88.83251953 211.91992188 C-110.88487732 191.39386093 -122.07813359 159.56681262 -123.15673828 130.10742188 C-123.76166716 94.18976981 -111.09689368 61.38612136 -86.21923828 35.33398438 C-74.2312185 23.90866757 -60.64842293 14.59727311 -45.34423828 8.27148438 C-44.59190918 7.9541333 -43.83958008 7.63678223 -43.06445312 7.30981445 C-29.10285376 1.80702954 -14.92252589 -0.15368813 0 0 Z " fill="#D9D9D9" transform="translate(123.03173828125,-0.521484375)"/>
<path d="M0 0 C7.40237056 5.20711167 7.40237056 5.20711167 9 10 C9.66 10 10.32 10 11 10 C11 10.66 11 11.32 11 12 C11.66 12 12.32 12 13 12 C13.495 13.98 13.495 13.98 14 16 C14.66 16 15.32 16 16 16 C16.81832722 17.89332534 17.62942268 19.78977733 18.4375 21.6875 C18.88996094 22.74324219 19.34242188 23.79898438 19.80859375 24.88671875 C24.51281944 37.17940032 22.70798221 49.71214335 17.66015625 61.46875 C15.70592092 65.6255235 13.75664686 69.32447086 11 73 C10.34 73 9.68 73 9 73 C8.80019531 73.5671875 8.60039062 74.134375 8.39453125 74.71875 C3.76370091 82.29411392 -8.48164037 87.25579096 -16.65234375 89.41015625 C-29.38167952 91.65301471 -41.87473688 90.18597971 -52.875 83.125 C-54.26941697 82.10947267 -55.6453211 81.06796045 -57 80 C-57.69480469 79.45601563 -58.38960937 78.91203125 -59.10546875 78.3515625 C-62.61110646 75.48267735 -62.61110646 75.48267735 -64 74 C-64 73.34 -64 72.68 -64 72 C-64.99 71.67 -65.98 71.34 -67 71 C-67.76100892 69.31254545 -68.51197477 67.61862917 -69.17578125 65.890625 C-70.04000058 63.72460244 -70.04000058 63.72460244 -72.125 61.0625 C-76.06277695 54.63079765 -75.12823258 46.33171104 -75.0625 39 C-75.05798828 38.03449219 -75.05347656 37.06898437 -75.04882812 36.07421875 C-75.03715417 33.71607911 -75.02078021 31.35807398 -75 29 C-74.34 29 -73.68 29 -73 29 C-72.95875 27.88625 -72.9175 26.7725 -72.875 25.625 C-72.20629178 20.05575841 -69.3936298 15.39281524 -66 11 C-65.34 11 -64.68 11 -64 11 C-63.74734375 10.41347656 -63.4946875 9.82695313 -63.234375 9.22265625 C-60.07096681 3.52651935 -53.90247211 -0.56957031 -48 -3 C-47.31421875 -3.350625 -46.6284375 -3.70125 -45.921875 -4.0625 C-30.90192669 -10.86398603 -13.74254407 -8.24872983 0 0 Z " fill="#B2B2B2" transform="translate(153,75)"/>
<path d="M0 0 C1.08025955 -0.00176743 1.08025955 -0.00176743 2.18234253 -0.00357056 C14.89608548 0.02124963 26.15170956 1.9618012 38.0625 6.5625 C39.58181233 7.12949321 41.10133427 7.69592517 42.62109375 8.26171875 C43.75675781 8.69097656 44.89242187 9.12023437 46.0625 9.5625 C46.0625 10.2225 46.0625 10.8825 46.0625 11.5625 C47.3825 11.5625 48.7025 11.5625 50.0625 11.5625 C50.0625 12.2225 50.0625 12.8825 50.0625 13.5625 C50.9390625 13.80355469 51.815625 14.04460937 52.71875 14.29296875 C56.36325871 15.67668993 58.60935577 17.35040113 61.5625 19.875 C62.50867188 20.679375 63.45484375 21.48375 64.4296875 22.3125 C65.73292969 23.42625 65.73292969 23.42625 67.0625 24.5625 C68.26945948 25.50176808 69.47746023 26.43970356 70.6875 27.375 C73.01484577 29.51860795 73.83176841 30.44762357 74.0625 33.5625 C74.7225 33.5625 75.3825 33.5625 76.0625 33.5625 C76.3925 35.2125 76.7225 36.8625 77.0625 38.5625 C76.1034375 38.7171875 76.1034375 38.7171875 75.125 38.875 C74.444375 39.101875 73.76375 39.32875 73.0625 39.5625 C72.7325 40.5525 72.4025 41.5425 72.0625 42.5625 C52.10933304 58.21508146 25.46387547 64.97217205 0.5 64.9375 C-0.72074219 64.93588867 -1.94148438 64.93427734 -3.19921875 64.93261719 C-13.52025757 64.79409798 -23.03843995 63.42021952 -32.9375 60.5625 C-34.04867187 60.25054687 -35.15984375 59.93859375 -36.3046875 59.6171875 C-42.79896924 57.60986405 -48.8924267 54.86058681 -55.0234375 51.94140625 C-57.2905823 50.86861521 -59.55064945 49.87440782 -61.875 48.9375 C-67.38596606 46.46318871 -72.07654898 43.24244064 -75.9375 38.5625 C-76.13687513 35.47218553 -74.33564063 33.65225686 -72.5 31.3125 C-71.2315625 29.95125 -71.2315625 29.95125 -69.9375 28.5625 C-69.2775 28.5625 -68.6175 28.5625 -67.9375 28.5625 C-67.9375 27.9025 -67.9375 27.2425 -67.9375 26.5625 C-65.8203125 24.6171875 -65.8203125 24.6171875 -63.0625 22.4375 C-62.15757813 21.71304688 -61.25265625 20.98859375 -60.3203125 20.2421875 C-57.9375 18.5625 -57.9375 18.5625 -55.9375 18.5625 C-55.9375 17.9025 -55.9375 17.2425 -55.9375 16.5625 C-51.45225911 13.03255717 -46.22941777 10.61608003 -40.9375 8.5625 C-39.9784375 8.170625 -39.019375 7.77875 -38.03125 7.375 C-36.40703125 6.7253125 -36.40703125 6.7253125 -34.75 6.0625 C-33.74582031 5.6603125 -32.74164063 5.258125 -31.70703125 4.84375 C-21.105313 1.24026442 -11.1580746 -0.03892184 0 0 Z " fill="#B2B2B2" transform="translate(124.9375,184.4375)"/>
<path d="M0 0 C2.46828326 0.02148456 4.93365799 0.00002951 7.40185547 -0.02539062 C41.07941778 -0.08489863 69.72948572 14.5393677 93.40673828 37.94335938 C116.71902783 61.40064588 129.02752336 93.47702782 129.34326172 126.45898438 C129.16768119 142.93821285 125.70818851 158.14070967 119.96826172 173.52148438 C119.63826172 173.52148438 119.30826172 173.52148438 118.96826172 173.52148438 C119.35848992 168.54607475 120.31875011 164.25892051 121.90576172 159.52148438 C131.0595275 130.52901167 126.34469704 96.90451496 113.68701172 69.77539062 C112.54363515 67.60838301 111.30482496 65.57447633 109.96826172 63.52148438 C109.40751953 62.61785156 108.84677734 61.71421875 108.26904297 60.78320312 C101.47444668 50.1571712 93.72633639 40.54479021 83.96826172 32.52148438 C83.96826172 31.86148437 83.96826172 31.20148437 83.96826172 30.52148438 C83.41912109 30.27785156 82.86998047 30.03421875 82.30419922 29.78320312 C79.46240018 28.24825147 77.12066555 26.34552085 74.59326172 24.33398438 C68.18389126 19.39542094 61.33283248 15.87207016 53.96826172 12.52148438 C52.99244141 12.05871094 52.01662109 11.5959375 51.01123047 11.11914062 C37.94871508 5.24011523 24.22494152 2.84676716 9.96826172 2.52148438 C9.08750977 2.49038574 8.20675781 2.45928711 7.29931641 2.42724609 C-14.70724172 1.6902375 -33.19145284 4.85593743 -53.03173828 14.52148438 C-53.66273437 14.82538086 -54.29373047 15.12927734 -54.94384766 15.44238281 C-82.64782417 29.11310187 -102.96302612 54.87905678 -113.84423828 83.39648438 C-114.60991121 85.75996782 -115.33776828 88.13596249 -116.03173828 90.52148438 C-116.22638672 91.15554199 -116.42103516 91.78959961 -116.62158203 92.44287109 C-125.78496474 123.29442351 -120.3982121 156.38514225 -106.03173828 184.52148438 C-103.33357406 189.40892526 -100.29514212 193.99037365 -97.03173828 198.52148438 C-96.18095703 199.73191406 -96.18095703 199.73191406 -95.31298828 200.96679688 C-90.76551006 207.25438156 -85.1730852 212.36585054 -79.46923828 217.58398438 C-75.92042452 220.83266989 -72.40199479 224.08530598 -69.03173828 227.52148438 C-74.24421871 226.00946715 -77.4627591 222.68525577 -81.28173828 219.02148438 C-81.94778076 218.38782959 -82.61382324 217.7541748 -83.30004883 217.10131836 C-107.86606006 193.53239641 -121.87131733 164.39571461 -123.16064453 130.09179688 C-123.73022714 94.1701204 -111.10621149 61.39587907 -86.21923828 35.33398438 C-74.2312185 23.90866757 -60.64842293 14.59727311 -45.34423828 8.27148438 C-44.59190918 7.9541333 -43.83958008 7.63678223 -43.06445312 7.30981445 C-29.10285376 1.80702954 -14.92252589 -0.15368813 0 0 Z " fill="#F8F8F8" transform="translate(123.03173828125,-0.521484375)"/>
<path d="M0 0 C0.99 0.495 0.99 0.495 2 1 C-11.56698788 10.09276848 -25.16173225 17.53782549 -41 22 C-42.67255859 22.48146484 -42.67255859 22.48146484 -44.37890625 22.97265625 C-72.91443707 29.70716682 -106.56688386 25.77401645 -132.06640625 11.25390625 C-132.70449219 10.84011719 -133.34257812 10.42632812 -134 10 C-133.34 9.67 -132.68 9.34 -132 9 C-129.59509612 9.97651835 -127.27976232 11.01448525 -124.9375 12.125 C-119.12170076 14.77397024 -113.32356354 17.02069415 -107.1875 18.8125 C-106.20414673 19.10374756 -106.20414673 19.10374756 -105.20092773 19.40087891 C-84.0094454 25.38207043 -61.1597408 24.81195245 -40 19 C-39.33258789 18.82339844 -38.66517578 18.64679688 -37.97753906 18.46484375 C-24.87297043 14.89987294 -12.88370799 8.38903715 -1.66186523 0.83789062 C-1.11344971 0.56138672 -0.56503418 0.28488281 0 0 Z " fill="#F3F3F3" transform="translate(199,225)"/>
<path d="M0 0 C1 3 1 3 0.33837891 4.81835938 C-0.21197021 5.82092773 -0.21197021 5.82092773 -0.7734375 6.84375 C-1.18134521 7.58995605 -1.58925293 8.33616211 -2.00952148 9.10498047 C-2.46012939 9.89533691 -2.9107373 10.68569336 -3.375 11.5 C-3.83398682 12.31227051 -4.29297363 13.12454102 -4.76586914 13.96142578 C-8.57731043 20.55514702 -12.87167712 26.36139624 -18 32 C-18.92115877 33.03984589 -19.84170494 34.08023471 -20.76171875 35.12109375 C-25.53532036 40.46980845 -30.38918013 45.5113441 -36 50 C-36.66 49.67 -37.32 49.34 -38 49 C-37.55269531 48.62488281 -37.10539063 48.24976563 -36.64453125 47.86328125 C-36.03996094 47.35152344 -35.43539062 46.83976562 -34.8125 46.3125 C-34.22082031 45.81363281 -33.62914062 45.31476563 -33.01953125 44.80078125 C-18.85532264 32.17080027 -9.29172794 16.31280854 0 0 Z " fill="#F8F8F8" transform="translate(241,173)"/>
</svg>
