<svg width="30" height="30" viewBox="0 0 30 30" fill="none" xmlns="http://www.w3.org/2000/svg">
<g filter="url(#filter0_d_183_16160)">
<g clip-path="url(#clip0_183_16160)">
<rect x="4.22949" y="2.15495" width="22.41" height="22.41" rx="11.205" fill="white"/>
<path fill-rule="evenodd" clip-rule="evenodd" d="M4.22949 2.15495H17.6755V12.6129H4.22949V2.15495Z" fill="#1A47B8"/>
<path fill-rule="evenodd" clip-rule="evenodd" d="M17.6755 2.15495V3.64895H35.6035V2.15495H17.6755ZM17.6755 5.14295V6.63695H35.6035V5.14295H17.6755ZM17.6755 8.13095V9.62495H35.6035V8.13095H17.6755ZM17.6755 11.1189V12.6129H35.6035V11.1189H17.6755ZM4.22949 14.1069V15.6009H35.6035V14.1069H4.22949ZM4.22949 17.0949V18.5889H35.6035V17.0949H4.22949ZM4.22949 20.0829V21.5769H35.6035V20.0829H4.22949ZM4.22949 23.0709V24.5649H35.6035V23.0709H4.22949Z" fill="#F93939"/>
<path fill-rule="evenodd" clip-rule="evenodd" d="M5.72363 3.64895V5.14295H7.21763V3.64895H5.72363ZM8.71163 3.64895V5.14295H10.2056V3.64895H8.71163ZM11.6996 3.64895V5.14295H13.1936V3.64895H11.6996ZM14.6876 3.64895V5.14295H16.1816V3.64895H14.6876ZM13.1936 5.14295V6.63695H14.6876V5.14295H13.1936ZM10.2056 5.14295V6.63695H11.6996V5.14295H10.2056ZM7.21763 5.14295V6.63695H8.71163V5.14295H7.21763ZM5.72363 6.63695V8.13095H7.21763V6.63695H5.72363ZM8.71163 6.63695V8.13095H10.2056V6.63695H8.71163ZM11.6996 6.63695V8.13095H13.1936V6.63695H11.6996ZM14.6876 6.63695V8.13095H16.1816V6.63695H14.6876ZM5.72363 9.62495V11.1189H7.21763V9.62495H5.72363ZM8.71163 9.62495V11.1189H10.2056V9.62495H8.71163ZM11.6996 9.62495V11.1189H13.1936V9.62495H11.6996ZM14.6876 9.62495V11.1189H16.1816V9.62495H14.6876ZM13.1936 8.13095V9.62495H14.6876V8.13095H13.1936ZM10.2056 8.13095V9.62495H11.6996V8.13095H10.2056ZM7.21763 8.13095V9.62495H8.71163V8.13095H7.21763Z" fill="white"/>
</g>
</g>
<defs>
<filter id="filter0_d_183_16160" x="0.909492" y="0.494949" width="29.0502" height="29.05" filterUnits="userSpaceOnUse" color-interpolation-filters="sRGB">
<feFlood flood-opacity="0" result="BackgroundImageFix"/>
<feColorMatrix in="SourceAlpha" type="matrix" values="0 0 0 0 0 0 0 0 0 0 0 0 0 0 0 0 0 0 127 0" result="hardAlpha"/>
<feOffset dy="1.66"/>
<feGaussianBlur stdDeviation="1.66"/>
<feColorMatrix type="matrix" values="0 0 0 0 0 0 0 0 0 0 0 0 0 0 0 0 0 0 0.075 0"/>
<feBlend mode="normal" in2="BackgroundImageFix" result="effect1_dropShadow_183_16160"/>
<feBlend mode="normal" in="SourceGraphic" in2="effect1_dropShadow_183_16160" result="shape"/>
</filter>
<clipPath id="clip0_183_16160">
<rect x="4.22949" y="2.15495" width="22.41" height="22.41" rx="11.205" fill="white"/>
</clipPath>
</defs>
</svg>
